<?xml version="1.0" encoding="UTF-8" standalone="no"?>
<!DOCTYPE svg PUBLIC "-//W3C//DTD SVG 1.1//EN" "http://www.w3.org/Graphics/SVG/1.1/DTD/svg11.dtd">
<svg xmlns="http://www.w3.org/2000/svg" version="1.1" viewBox="0.00 0.00 236.00 240.00">
<g stroke-width="2.00" fill="none" stroke-linecap="butt">
<path stroke="#e6e6e6" stroke-opacity="0.557" vector-effect="non-scaling-stroke" d="
  M 156.26 12.74
  L 12.73 12.71"
/>
<path stroke="#e6e6e6" stroke-opacity="0.557" vector-effect="non-scaling-stroke" d="
  M 68.97 132.61
  L 48.97 132.47"
/>
</g>
<path fill="#ffffff" d="
  M 182.22 2.26
  L 194.44 0.05
  A 0.62 0.62 0.0 0 1 195.16 0.77
  L 193.00 13.00
  A 0.62 0.62 0.0 0 1 191.95 13.33
  L 181.89 3.31
  A 0.62 0.62 0.0 0 1 182.22 2.26
  Z"
/>
<path fill="#ffffff" d="
  M 211.67 15.93
  L 196.10 15.95
  A 0.31 0.31 0.0 0 1 195.79 15.59
  L 198.06 2.26
  A 0.31 0.31 0.0 0 1 198.58 2.09
  L 211.89 15.40
  A 0.31 0.31 0.0 0 1 211.67 15.93
  Z"
/>
<path fill="#ffffff" d="
  M 192.19 18.06
  L 179.89 47.95
  A 0.49 0.49 0.0 0 1 178.94 47.76
  L 179.17 5.91
  A 0.49 0.49 0.0 0 1 180.01 5.56
  L 192.09 17.53
  A 0.49 0.49 0.0 0 1 192.19 18.06
  Z"
/>
<path fill="#010000" fill-opacity="0.110" d="
  M 156.26 12.74
  L 12.73 12.71
  Q 13.21 11.57 14.09 10.73
  Q 14.45 10.38 14.95 10.38
  L 29.11 10.31
  A 1.61 1.57 -27.3 0 1 30.00 10.58
  C 30.95 11.20 31.81 11.82 32.99 11.84
  Q 38.21 11.92 43.67 11.83
  A 1.64 1.63 17.3 0 0 44.98 11.15
  Q 45.55 10.36 46.59 10.41
  C 55.99 10.88 64.55 10.25 74.48 10.37
  Q 76.27 10.39 77.90 10.57
  C 79.56 10.75 81.17 10.35 82.86 10.34
  Q 110.68 10.17 138.84 10.65
  Q 139.48 10.66 140.11 10.81
  Q 140.98 11.02 142.22 10.93
  Q 147.30 10.55 153.26 10.38
  Q 156.08 10.31 156.26 12.74
  Z"
/>
<path fill="#ffffff" d="
  M 68.97 132.61
  L 48.97 132.47
  L 33.50 132.26
  Q 32.71 132.25 33.10 131.56
  Q 36.33 125.80 39.73 120.51
  Q 52.17 101.16 63.85 83.33
  Q 65.28 81.16 66.82 78.86
  Q 67.86 77.31 65.99 77.31
  L 13.29 77.29
  Q 12.74 77.29 12.74 76.74
  L 12.73 12.71
  L 156.26 12.74
  L 169.96 12.17
  Q 172.04 12.08 171.18 13.98
  Q 169.89 16.86 168.02 19.57
  Q 160.30 30.79 152.86 42.42
  Q 152.39 43.15 153.26 43.14
  L 165.80 43.06
  A 0.74 0.74 0.0 0 1 166.49 44.08
  Q 165.59 46.25 164.44 48.03
  Q 151.48 68.07 138.89 87.38
  A 1.36 1.35 31.1 0 0 139.37 89.31
  C 158.57 99.86 175.19 118.05 178.37 139.76
  Q 180.28 152.85 178.33 167.27
  Q 176.67 179.49 170.67 191.74
  C 160.66 212.18 143.31 226.75 121.68 233.98
  C 107.38 238.76 90.96 239.05 76.55 237.37
  Q 68.57 236.44 59.46 233.28
  C 36.95 225.46 19.44 210.14 9.60 188.71
  Q 7.54 184.23 6.34 179.78
  Q 2.50 165.58 1.59 150.85
  Q 1.53 149.85 2.53 149.85
  L 66.73 149.80
  Q 68.01 149.79 68.48 150.99
  Q 70.70 156.66 72.79 162.68
  C 73.98 166.13 80.14 168.44 83.38 169.50
  C 90.45 171.82 96.89 170.91 103.54 167.60
  Q 109.01 164.87 110.38 158.89
  C 113.05 147.17 110.40 133.48 95.63 132.84
  Q 82.08 132.26 68.97 132.61
  Z
  M 81.46 69.07
  Q 83.09 69.07 82.22 70.45
  Q 66.19 96.14 49.70 121.09
  Q 48.42 123.02 50.73 123.01
  Q 68.45 122.91 87.50 123.02
  C 98.85 123.08 109.90 125.35 116.15 135.36
  C 120.87 142.94 121.60 152.85 119.22 161.01
  C 116.29 171.09 107.97 177.57 97.42 178.87
  C 82.91 180.67 66.20 175.89 62.56 160.45
  C 62.20 158.90 60.96 158.10 59.42 158.07
  Q 45.00 157.78 29.51 157.98
  C 23.88 158.05 18.26 157.54 12.57 158.13
  Q 12.05 158.18 11.99 158.70
  Q 11.42 164.65 12.50 169.54
  C 19.31 200.25 41.72 220.98 71.88 227.77
  C 78.55 229.28 85.75 229.40 92.54 229.48
  Q 119.01 229.78 139.46 215.51
  C 159.85 201.28 170.38 178.07 171.09 154.12
  C 171.85 128.37 155.24 106.86 132.76 95.67
  Q 129.36 93.98 126.09 92.46
  Q 125.24 92.06 125.76 91.28
  L 150.89 53.16
  A 0.64 0.64 0.0 0 0 150.68 52.26
  Q 150.17 51.96 149.58 51.96
  Q 143.45 51.97 137.56 51.97
  A 0.74 0.73 -73.9 0 1 136.94 50.84
  Q 140.84 44.63 145.29 38.03
  Q 150.49 30.34 155.66 22.70
  Q 156.80 21.01 154.76 21.00
  L 23.25 20.99
  A 2.26 2.25 -90.0 0 0 21.00 23.25
  L 21.00 68.50
  Q 21.00 69.00 21.50 69.00
  L 81.46 69.07
  Z"
/>
<path fill="#ffffff" d="
  M 198.75 19.02
  L 215.64 20.29
  A 0.44 0.44 0.0 0 1 216.04 20.72
  L 216.21 36.65
  A 0.44 0.44 0.0 0 1 215.46 36.96
  L 198.40 19.77
  A 0.44 0.44 0.0 0 1 198.75 19.02
  Z"
/>
<path fill="#ffffff" d="
  M 214.26 42.14
  L 183.54 54.10
  A 1.20 1.20 0.0 0 1 181.98 52.55
  L 193.83 21.78
  A 1.20 1.20 0.0 0 1 195.80 21.36
  L 214.67 40.17
  A 1.20 1.20 0.0 0 1 214.26 42.14
  Z"
/>
<path fill="#ffffff" d="
  M 233.75 38.23
  L 220.58 40.09
  A 0.41 0.41 0.0 0 1 220.11 39.69
  L 219.90 24.28
  A 0.41 0.41 0.0 0 1 220.61 23.98
  L 233.99 37.54
  A 0.41 0.41 0.0 0 1 233.75 38.23
  Z"
/>
<path fill="#ffffff" d="
  M 95.51 63.49
  Q 96.48 61.99 94.69 61.99
  L 29.62 62.02
  Q 27.98 62.02 27.99 60.38
  L 27.99 29.26
  Q 27.99 28.01 29.24 28.01
  L 141.29 28.00
  Q 143.24 28.00 142.16 29.61
  L 124.01 56.96
  A 1.33 1.33 0.0 0 0 125.17 59.03
  Q 130.75 58.81 136.40 59.22
  Q 138.08 59.34 137.15 60.74
  C 136.39 61.88 135.88 63.17 135.11 64.31
  Q 124.90 79.44 115.09 94.94
  A 1.38 1.38 0.0 0 0 115.73 96.96
  C 118.26 98.01 120.83 98.38 123.37 99.37
  C 140.11 105.89 153.87 117.67 160.61 134.31
  Q 164.82 144.71 164.18 155.18
  C 162.92 175.68 154.41 194.74 138.67 207.09
  C 114.35 226.17 80.68 227.76 53.81 213.53
  C 35.37 203.76 23.37 187.74 19.28 166.79
  A 0.59 0.59 0.0 0 1 19.84 166.09
  Q 36.88 165.68 54.39 165.92
  Q 55.66 165.94 56.73 166.56
  A 1.48 1.45 3.7 0 1 57.33 167.23
  Q 63.07 179.97 76.97 184.09
  Q 90.04 187.97 102.62 185.06
  C 119.70 181.12 127.62 167.17 127.29 150.40
  C 126.99 135.43 118.77 121.92 103.64 118.06
  Q 97.04 116.37 84.49 116.82
  Q 74.81 117.17 65.08 116.80
  Q 63.45 116.74 61.93 116.23
  Q 61.49 116.08 61.74 115.69
  L 95.51 63.49
  Z"
/>
<path fill="#ffffff" d="
  M 222.48 43.26
  L 233.73 41.83
  Q 234.82 41.70 234.95 42.88
  Q 235.53 48.42 233.20 53.50
  A 0.57 0.56 -54.9 0 1 232.28 53.67
  L 222.33 43.69
  A 0.25 0.25 0.0 0 1 222.48 43.26
  Z"
/>
<path fill="#ffffff" d="
  M 230.05 57.02
  L 188.54 57.05
  A 0.59 0.59 0.0 0 1 188.33 55.91
  L 218.17 44.31
  A 0.59 0.59 0.0 0 1 218.80 44.44
  L 230.46 56.01
  A 0.59 0.59 0.0 0 1 230.05 57.02
  Z"
/>
<path fill="#010000" fill-opacity="0.110" d="
  M 48.97 132.47
  L 68.97 132.61
  Q 58.58 135.18 48.97 132.47
  Z"
/>
</svg>
